<?xml version="1.0" encoding="utf-8"?>
<!-- Generator: Adobe Illustrator 23.0.1, SVG Export Plug-In . SVG Version: 6.00 Build 0)  -->
<svg version="1.1" id="Layer_1" xmlns="http://www.w3.org/2000/svg" xmlns:xlink="http://www.w3.org/1999/xlink" x="0px" y="0px"
	 viewBox="0 0 260 260" style="enable-background:new 0 0 260 260;" xml:space="preserve">
<style type="text/css">
	.st0{fill:#3C50C8;}
</style>
<g id="Deno_Blue">
	<path id="Deno-Blue-2" class="st0" d="M37.8,157.7c16.1,49.1,68.9,75.9,118,59.8s75.9-68.9,59.8-118s-68.9-75.9-118-59.8
		S21.7,108.6,37.8,157.7z M46.3,154.9c-14.5-44.4,9.8-92.2,54.2-106.7c44.3-14.4,92,9.8,106.5,54.1c7.5,22.8,4.9,47.8-7.1,68.5
		c-19.8-108.7-72-103-72-103l0,0C116.7,68,103.6,72.4,91.4,81c-22.8,16-33.5,40.5-23.9,54.6c9.1,13.3,33,12.7,54.8-0.9
		c2.1-1.3,4.9-0.7,6.2,1.5c0,0,0.1,0.1,0.1,0.1c15.3,26.7,27.3,69.3,27.9,71.4c-1.2,0.4-2.4,0.9-3.6,1.3
		C108.6,223.5,60.9,199.3,46.3,154.9L46.3,154.9z M97.7,106.1c-2.3,0.4-4.5-1.1-4.9-3.4c-0.4-2.3,1.1-4.5,3.4-4.9
		c1.9-0.4,3.7,0.6,4.6,2.3c1,2.1,0.1,4.6-2,5.6C98.4,105.9,98.1,106,97.7,106.1z M80.3,109.2c-2.3,0.4-4.5-1.1-4.9-3.4
		c-0.4-2.3,1.1-4.5,3.4-4.9c1.9-0.4,3.7,0.6,4.6,2.3c1,2.1,0.1,4.6-2,5.6C81,109,80.7,109.1,80.3,109.2L80.3,109.2z"/>
</g>
</svg>
