<svg xmlns="http://www.w3.org/2000/svg" xmlns:xlink="http://www.w3.org/1999/xlink" version="1.1" style="" xml:space="preserve" width="260" height="260"><rect id="backgroundrect" width="100%" height="100%" x="0" y="0" fill="none" stroke="none"/>
<style type="text/css">
	.st0{fill:#53C9E5;}
</style>

<g class="currentLayer" style=""><title>Layer 1</title><g id="svg_1" class="">
	<path class="st0" d="M-145.2285583496094,76.9571434020996 c-4.6,-12.7 -24.9,-19 -52,-17.6 c-3.4,-27 -13.2,-45.9 -26.5,-48.2 c-3.1,-0.6000000000000001 -6.3,-0.1 -9.5,1 l3.2,8.7 c1.8,-0.6000000000000001 3.4,-0.8 4.8,-0.6000000000000001 c6.5,1.1 12.9,11.9 16.6,27.5 c0.9,3.8 1.6,7.9 2.2,12.2 c-8.4,0.9 -17.3,2.6 -26.3,4.8 c-7.9,-5.3 -15.8,-9.9 -23.4,-13.6 c8.5,-16.5 18,-27.3 26.2,-30.3 l-3.2,-8.7 l0,0 c-10.8,3.9 -22,16.7 -31.5,35.2 c-19.2,-8 -36.1,-10.4 -46.9,-6.5 l3.2,8.7 c8.1,-2.9 22.5,-0.8 39.5,6.3 c-3.4,7.7 -6.5,16.3 -9,25.4 c-8.5,4.2 -16.3,8.6 -23.3,13.4 c-2.4,-3.6 -4.4,-7.1 -6.2,-10.6 C-314.7285583496094,69.85714340209961 -316.62855834960936,57.35714340209961 -312.4285583496094,52.257143402099615 c0.9,-1.1 2.3,-2 4.1,-2.7 L-311.5285583496094,40.85714340209961 l0,0 c-3.3,1.2 -6.1,2.9 -8,5.4 c-8.7,10.3 -3.9,31 10.7,53.8 c-21.6,16.4 -33,34.1 -28.4,46.8 s24.9,18.9 52,17.6 c3.4,27 13.2,45.9 26.5,48.2 c3.1,0.6000000000000001 6.3,0.1 9.6,-1.1 c10.8,-3.9 22,-16.7 31.5,-35.2 c19.1,8.1 35.9,10.6 46.7,6.6 c3.3,-1.2 6.1,-2.9 8,-5.4 c8.7,-10.3 3.9,-31 -10.7,-53.8 C-152.12855834960936,107.4571434020996 -140.62855834960936,89.6571434020996 -145.2285583496094,76.9571434020996 zM-205.7285583496094,69.4571434020996 c0.4,5.6 0.4,11.4 0.30000000000000004,17.3 c-2.7,-2.5 -5.6,-5.1 -8.6,-7.5 c-2.9,-2.5 -6,-4.8 -9,-7.1 C-217.02855834960937,70.9571434020996 -211.2285583496094,70.05714340209961 -205.7285583496094,69.4571434020996 zM-208.42855834960938,117.5571434020996 c-1.1,6.4 -2.4,12.6 -4,18.4 c-5.7,2.6 -11.5,5 -17.4,7.2 c-5.9,2.2 -11.9,4 -17.8,5.6 c-5,-3.5 -9.9,-7.3 -14.9,-11.4 c-4.9,-4.1 -9.4,-8.3 -13.9,-12.6 c0.5,-6.2 1.3,-12.4 2.4,-18.5 c1.1,-6.4 2.4,-12.6 4,-18.4 c5.7,-2.6 11.5,-5 17.4,-7.2 s11.9,-4 17.8,-5.6 c5,3.5 9.9,7.3 14.9,11.4 c4.9,4.1 9.4,8.3 13.9,12.6 C-206.62855834960936,105.1571434020996 -207.42855834960938,111.4571434020996 -208.42855834960938,117.5571434020996 zM-197.7285583496094,107.9571434020996 c4,4.5 7.8,9.1 11,13.6 c-4.7,3.1 -9.7,6.2 -15,9 c0.8,-3.7 1.6,-7.5 2.3,-11.4 C-198.7285583496094,115.35714340209961 -198.12855834960936,111.65714340209962 -197.7285583496094,107.9571434020996 zM-222.12855834960936,164.15714340209962 c-5,-2.4 -10.1,-5.4 -15.4,-8.5 c3.5,-1.1 7.2,-2.3 10.9,-3.7 s7.3,-2.8 10.8,-4.2 C-217.82855834960938,153.5571434020996 -219.92855834960938,159.0571434020996 -222.12855834960936,164.15714340209962 zM-259.7285583496094,151.65714340209962 c-5.9,1.2 -11.6,2.1 -17.2,2.7 c-0.4,-5.6 -0.4,-11.4 -0.30000000000000004,-17.3 c2.7,2.5 5.6,5.1 8.6,7.5 C-265.62855834960936,146.9571434020996 -262.62855834960936,149.4571434020996 -259.7285583496094,151.65714340209962 zM-260.32855834960935,59.757143402099615 c5,2.4 10.1,5.4 15.4,8.5 c-3.5,1.1 -7.2,2.3 -10.9,3.7 c-3.7,1.4 -7.3,2.8 -10.8,4.2 C-264.7285583496094,70.25714340209962 -262.5285583496094,64.75714340209962 -260.32855834960935,59.757143402099615 zM-280.9285583496094,93.25714340209962 c-0.8,3.7 -1.6,7.5 -2.3,11.4 c-0.7000000000000001,3.8 -1.2,7.6 -1.7000000000000002,11.2 c-4,-4.5 -7.8,-9.1 -11,-13.6 C-291.2285583496094,99.1571434020996 -286.2285583496094,96.1571434020996 -280.9285583496094,93.25714340209962 zM-298.5285583496094,155.15714340209962 c-16,-0.9 -27.8,-5.3 -30.1,-11.5 c-2.2,-6.1 3.9,-17.2 15.6,-28.1 c2.9,-2.6 6.1,-5.3 9.4,-7.9 c5.1,6.9 10.9,13.8 17.5,20.7 c-0.6000000000000001,9.5 -0.6000000000000001,18.4 0,26.8 C-290.4285583496094,155.3571434020996 -294.62855834960936,155.4571434020996 -298.5285583496094,155.15714340209962 zM-257.12855834960936,203.3571434020996 c-6.5,-1.1 -12.9,-11.9 -16.6,-27.5 c-0.9,-3.8 -1.6,-7.9 -2.2,-12.2 c8.4,-0.9 17.3,-2.6 26.3,-4.8 c7.9,5.3 15.8,9.9 23.4,13.6 c-8.5,16.5 -18,27.3 -26.2,30.3 C-254.12855834960936,203.4571434020996 -255.7285583496094,203.75714340209962 -257.12855834960936,203.3571434020996 zM-175.12855834960936,139.8571434020996 c7.3,14.3 9.2,26.8 5.1,31.8 c-0.9,1.1 -2.3,2 -4.1,2.7 c-8.1,2.9 -22.5,0.8 -39.5,-6.3 c3.4,-7.7 6.5,-16.3 9,-25.4 c8.5,-4.2 16.3,-8.6 23.3,-13.4 C-178.92855834960938,132.75714340209962 -176.92855834960938,136.3571434020996 -175.12855834960936,139.8571434020996 zM-169.62855834960936,108.25714340209962 c-2.9,2.6 -6.1,5.3 -9.4,7.9 c-5.1,-6.9 -10.9,-13.8 -17.5,-20.7 c0.6000000000000001,-9.5 0.6000000000000001,-18.4 0,-26.8 c4.3,-0.2 8.4,-0.2 12.4,-0.1 c16,0.9 27.8,5.3 30.1,11.5 C-151.7285583496094,86.25714340209962 -157.92855834960938,97.35714340209961 -169.62855834960936,108.25714340209962 z" id="svg_2"/>
	<path class="st0" d="M-311.5285583496094,40.85714340209961 L-311.5285583496094,40.85714340209961 L-311.5285583496094,40.85714340209961 z" id="svg_3"/>
	<ellipse transform="matrix(0.9397,-0.342,0.342,0.9397,-36.298,52.3124) " class="st0" cx="-212.96853637695312" cy="-14.037690162658691" rx="19" ry="19" id="svg_4"/>
	<path class="st0" d="M-233.52855834960937,12.257143402099608 L-233.52855834960937,12.257143402099608 L-233.52855834960937,12.257143402099608 z" id="svg_5"/>
</g><g fill="#616161" stroke="none" class="" id="layer101">
 <path d="M5854.99951171875,542.000244140625 l-370,-179 l-3,-424 l-2,-424 l77,-35 c42,-19 80,-36 85,-38 c4,-2 8,174 8,391 l0,395 l23,6 c12,3 25,6 28,6 c4,0 10,-189 14,-419 l7,-419 l95,-46 c52,-25 97,-46 99,-46 c2,0 5,223 6,496 l3,497 l38,13 l37,13 l0,-532 l0,-532 l112,-52 c61,-29 113,-51 115,-50 c2,2 2,353 1,780 l-3,777 l-370,-178 z" id="svg_8"/>
 <path d="M6309.99951171875,335.000244140625 l0,-355 l193,0 c105,0 324,-3 485,-7 l292,-6 l-2,214 l-3,213 l-475,148 c-261,81 -478,148 -482,148 c-5,0 -8,-160 -8,-355 zm520,-60 c140,-25 263,-48 273,-51 c10,-3 17,-15 17,-30 c0,-30 13,-31 -295,6 c-137,16 -258,30 -267,30 c-15,0 -18,9 -18,51 c0,43 2,50 18,45 c9,-3 132,-26 272,-51 z" id="svg_10"/>
 <path d="M6684.99951171875,-100.999755859375 c-181,-3 -340,-7 -352,-8 l-23,-1 l0,-351 c0,-330 1,-351 18,-347 c9,3 227,70 485,149 l467,143 l0,213 l0,213 l-132,-2 c-73,-1 -281,-5 -463,-9 zm435,-216 l0,-28 l-290,-56 l-290,-55 l0,48 c0,31 4,48 13,49 c6,0 127,15 267,33 c325,43 300,42 300,9 z" id="svg_12"/>
 </g><g fill="#f57c00" stroke="none" class="" id="layer102">
 <path d="M6289.99951171875,315.000244140625 l0,-355 l193,0 c105,0 324,-3 485,-7 l292,-6 l-2,214 l-3,213 l-475,148 c-261,81 -478,148 -482,148 c-5,0 -8,-160 -8,-355 zm520,-60 c140,-25 263,-48 273,-51 c10,-3 17,-15 17,-30 c0,-30 13,-31 -295,6 c-137,16 -258,30 -267,30 c-15,0 -18,9 -18,51 c0,43 2,50 18,45 c9,-3 132,-26 272,-51 z" id="svg_16"/>
 <path d="M6664.99951171875,-120.999755859375 c-181,-3 -340,-7 -352,-8 l-23,-1 l0,-351 c0,-330 1,-351 18,-347 c9,3 227,70 485,149 l467,143 l0,213 l0,213 l-132,-2 c-73,-1 -281,-5 -463,-9 zm435,-216 l0,-28 l-290,-56 l-290,-55 l0,48 c0,31 4,48 13,49 c6,0 127,15 267,33 c325,43 300,42 300,9 z" id="svg_18"/>
 </g><g fill="#616161" stroke="none" class="" id="svg_20">
 <path d="M5854.99951171875,542.000244140625 l-370,-179 l-3,-424 l-2,-424 l77,-35 c42,-19 80,-36 85,-38 c4,-2 8,174 8,391 l0,395 l23,6 c12,3 25,6 28,6 c4,0 10,-189 14,-419 l7,-419 l95,-46 c52,-25 97,-46 99,-46 c2,0 5,223 6,496 l3,497 l38,13 l37,13 l0,-532 l0,-532 l112,-52 c61,-29 113,-51 115,-50 c2,2 2,353 1,780 l-3,777 l-370,-178 z" id="svg_22"/>
 <path d="M6309.99951171875,335.000244140625 l0,-355 l193,0 c105,0 324,-3 485,-7 l292,-6 l-2,214 l-3,213 l-475,148 c-261,81 -478,148 -482,148 c-5,0 -8,-160 -8,-355 zm520,-60 c140,-25 263,-48 273,-51 c10,-3 17,-15 17,-30 c0,-30 13,-31 -295,6 c-137,16 -258,30 -267,30 c-15,0 -18,9 -18,51 c0,43 2,50 18,45 c9,-3 132,-26 272,-51 z" id="svg_24"/>
 <path d="M6684.99951171875,-100.999755859375 c-181,-3 -340,-7 -352,-8 l-23,-1 l0,-351 c0,-330 1,-351 18,-347 c9,3 227,70 485,149 l467,143 l0,213 l0,213 l-132,-2 c-73,-1 -281,-5 -463,-9 zm435,-216 l0,-28 l-290,-56 l-290,-55 l0,48 c0,31 4,48 13,49 c6,0 127,15 267,33 c325,43 300,42 300,9 z" id="svg_26"/>
 </g><g fill="#616161" stroke="none" class="" id="svg_34">
 <path d="M5894.99951171875,582.000244140625 l-370,-179 l-3,-424 l-2,-424 l77,-35 c42,-19 80,-36 85,-38 c4,-2 8,174 8,391 l0,395 l23,6 c12,3 25,6 28,6 c4,0 10,-189 14,-419 l7,-419 l95,-46 c52,-25 97,-46 99,-46 c2,0 5,223 6,496 l3,497 l38,13 l37,13 l0,-532 l0,-532 l112,-52 c61,-29 113,-51 115,-50 c2,2 2,353 1,780 l-3,777 l-370,-178 z" id="svg_36"/>
 <path d="M6349.99951171875,375.000244140625 l0,-355 l193,0 c105,0 324,-3 485,-7 l292,-6 l-2,214 l-3,213 l-475,148 c-261,81 -478,148 -482,148 c-5,0 -8,-160 -8,-355 zm520,-60 c140,-25 263,-48 273,-51 c10,-3 17,-15 17,-30 c0,-30 13,-31 -295,6 c-137,16 -258,30 -267,30 c-15,0 -18,9 -18,51 c0,43 2,50 18,45 c9,-3 132,-26 272,-51 z" id="svg_38"/>
 <path d="M6724.99951171875,-60.999755859375 c-181,-3 -340,-7 -352,-8 l-23,-1 l0,-351 c0,-330 1,-351 18,-347 c9,3 227,70 485,149 l467,143 l0,213 l0,213 l-132,-2 c-73,-1 -281,-5 -463,-9 zm435,-216 l0,-28 l-290,-56 l-290,-55 l0,48 c0,31 4,48 13,49 c6,0 127,15 267,33 c325,43 300,42 300,9 z" id="svg_40"/>
 </g><g fill="#616161" stroke="none" class="" id="svg_48">
 <path d="M5934.99951171875,622.000244140625 l-370,-179 l-3,-424 l-2,-424 l77,-35 c42,-19 80,-36 85,-38 c4,-2 8,174 8,391 l0,395 l23,6 c12,3 25,6 28,6 c4,0 10,-189 14,-419 l7,-419 l95,-46 c52,-25 97,-46 99,-46 c2,0 5,223 6,496 l3,497 l38,13 l37,13 l0,-532 l0,-532 l112,-52 c61,-29 113,-51 115,-50 c2,2 2,353 1,780 l-3,777 l-370,-178 z" id="svg_50"/>
 <path d="M6389.99951171875,415.000244140625 l0,-355 l193,0 c105,0 324,-3 485,-7 l292,-6 l-2,214 l-3,213 l-475,148 c-261,81 -478,148 -482,148 c-5,0 -8,-160 -8,-355 zm520,-60 c140,-25 263,-48 273,-51 c10,-3 17,-15 17,-30 c0,-30 13,-31 -295,6 c-137,16 -258,30 -267,30 c-15,0 -18,9 -18,51 c0,43 2,50 18,45 c9,-3 132,-26 272,-51 z" id="svg_52"/>
 <path d="M6764.99951171875,-20.999755859375 c-181,-3 -340,-7 -352,-8 l-23,-1 l0,-351 c0,-330 1,-351 18,-347 c9,3 227,70 485,149 l467,143 l0,213 l0,213 l-132,-2 c-73,-1 -281,-5 -463,-9 zm435,-216 l0,-28 l-290,-56 l-290,-55 l0,48 c0,31 4,48 13,49 c6,0 127,15 267,33 c325,43 300,42 300,9 z" id="svg_54"/>
 </g><g fill="#616161" stroke="none" class="" id="svg_62">
 <path d="M5974.99951171875,662.000244140625 l-370,-179 l-3,-424 l-2,-424 l77,-35 c42,-19 80,-36 85,-38 c4,-2 8,174 8,391 l0,395 l23,6 c12,3 25,6 28,6 c4,0 10,-189 14,-419 l7,-419 l95,-46 c52,-25 97,-46 99,-46 c2,0 5,223 6,496 l3,497 l38,13 l37,13 l0,-532 l0,-532 l112,-52 c61,-29 113,-51 115,-50 c2,2 2,353 1,780 l-3,777 l-370,-178 z" id="svg_64"/>
 <path d="M6429.99951171875,455.000244140625 l0,-355 l193,0 c105,0 324,-3 485,-7 l292,-6 l-2,214 l-3,213 l-475,148 c-261,81 -478,148 -482,148 c-5,0 -8,-160 -8,-355 zm520,-60 c140,-25 263,-48 273,-51 c10,-3 17,-15 17,-30 c0,-30 13,-31 -295,6 c-137,16 -258,30 -267,30 c-15,0 -18,9 -18,51 c0,43 2,50 18,45 c9,-3 132,-26 272,-51 z" id="svg_66"/>
 <path d="M6804.99951171875,19.000244140625 c-181,-3 -340,-7 -352,-8 l-23,-1 l0,-351 c0,-330 1,-351 18,-347 c9,3 227,70 485,149 l467,143 l0,213 l0,213 l-132,-2 c-73,-1 -281,-5 -463,-9 zm435,-216 l0,-28 l-290,-56 l-290,-55 l0,48 c0,31 4,48 13,49 c6,0 127,15 267,33 c325,43 300,42 300,9 z" id="svg_68"/>
 </g><g fill="#616161" stroke="none" class="" id="svg_90" transform="rotate(-7.808629512786865 131.9057312011721,116.69409179687501) ">
 <path d="M68.64507775312981,189.11243574397247 l-44.583688531925254,-21.568865533012485 l-0.3614893664750724,-51.0904971284765 l-0.2409929109833799,-51.0904971284765 l9.278227072860119,-4.217375942209145 c5.060851130650974,-2.2894326543421073 9.639716439335189,-4.337872397700835 10.242198716793638,-4.578865308684215 c0.4819858219667632,-0.2409929109833799 0.9639716439335269,20.966383255554035 0.9639716439335269,47.114114097250734 l0,47.596099919217494 l2.7714184763088667,0.7229787329501449 c1.4459574659002783,0.3614893664750724 3.0124113872922464,0.7229787329501449 3.373900753767316,0.7229787329501449 c0.4819858219667632,0 1.2049645549168986,-22.773830087929383 1.686950376883658,-50.48801485101805 l0.8434751884418287,-50.48801485101805 l11.447163271710536,-5.5428369526177335 c6.2658156855678735,-3.0124113872922464 11.688156182693916,-5.5428369526177335 11.929149093677296,-5.5428369526177335 c0.2409929109833799,0 0.6024822774584496,26.870709574646842 0.7229787329501449,59.76624192387817 l0.3614893664750724,59.88673837936986 l4.578865308684215,1.5664539213919682 l4.458368853192525,1.5664539213919682 l0,-64.104114321579 l0,-64.104114321579 l13.495603015069264,-6.2658156855678735 c7.350283784993081,-3.494397209259006 13.616099470560954,-6.145319230076183 13.857092381544334,-6.024822774584493 c0.2409929109833799,0.2409929109833799 0.2409929109833799,42.53524878856652 0.1204964554916908,93.98723528351809 l-0.3614893664750724,93.62574591704302 l-44.583688531925254,-21.448369077520795 z" id="svg_92"/>
 <path d="M123.4709650018487,164.16966945719264 l0,-42.7762416995499 l23.255815909896143,0 c12.652127826627435,0 39.040851579307514,-0.3614893664750724 58.44078091346958,-0.8434751884418287 l35.18496500357344,-0.7229787329501449 l-0.2409929109833799,25.78624147522163 l-0.3614893664750724,25.66574501972994 l-57.23581635855268,17.8334754127701 c-31.449574883331053,9.760212894826878 -57.59730572502775,17.8334754127701 -58.07929154699451,17.8334754127701 c-0.6024822774584496,0 -0.9639716439335269,-19.279432878670377 -0.9639716439335269,-42.7762416995499 zm62.658156855678726,-7.2297873295013915 c16.86950376883658,-3.0124113872922464 31.690567794314433,-5.783829863601114 32.89553234923133,-6.145319230076183 c1.2049645549168986,-0.3614893664750724 2.0484397433587276,-1.8074468323753479 2.0484397433587276,-3.6148936647506957 c0,-3.6148936647506957 1.5664539213919682,-3.7353901202423856 -35.54645437004851,0.7229787329501449 c-16.50801440236151,1.9279432878670377 -31.088085516855983,3.6148936647506957 -32.17255361628119,3.6148936647506957 c-1.8074468323753479,0 -2.1689361988504174,1.0844680994252087 -2.1689361988504174,6.145319230076183 c0,5.181347586142664 0.2409929109833799,6.024822774584493 2.1689361988504174,5.4223404971260445 c1.0844680994252087,-0.3614893664750724 15.905532124903061,-3.1329078427839363 32.77503589373964,-6.145319230076183 z" id="svg_94"/>
 <path d="M168.6571358112324,111.63321486281586 c-21.809858443995864,-0.3614893664750724 -40.96879486717455,-0.8434751884418287 -42.41475233307483,-0.9639716439335269 l-2.7714184763088667,-0.1204964554916908 l0,-42.29425587758314 c0,-39.76383031225765 0.1204964554916908,-42.29425587758314 2.1689361988504174,-41.81227005561638 c1.0844680994252087,0.3614893664750724 27.352695396613598,8.43475188441829 58.44078091346958,17.95397186826179 l56.271844714619164,17.23099313531165 l0,25.66574501972994 l0,25.66574501972994 l-15.905532124903061,-0.2409929109833799 c-8.79624125089336,-0.1204964554916908 -33.85950399316485,-0.6024822774584496 -55.789858892652404,-1.0844680994252087 zm52.41595813888509,-26.02723438620501 l0,-3.373900753767316 l-34.94397209259006,-6.747801507534632 l-34.94397209259006,-6.627305052042943 l0,5.783829863601114 c0,3.7353901202423856 0.4819858219667632,5.783829863601114 1.5664539213919682,5.904326319092803 c0.7229787329501449,0 15.303049847444612,1.8074468323753479 32.17255361628119,3.9763830312257653 c39.161348034799204,5.181347586142664 36.14893664750696,5.060851130650974 36.14893664750696,1.0844680994252087 z" id="svg_96"/>
 </g><g fill="#616161" stroke="none" class="" id="svg_76">
 <path d="M6014.99951171875,702.000244140625 l-370,-179 l-3,-424 l-2,-424 l77,-35 c42,-19 80,-36 85,-38 c4,-2 8,174 8,391 l0,395 l23,6 c12,3 25,6 28,6 c4,0 10,-189 14,-419 l7,-419 l95,-46 c52,-25 97,-46 99,-46 c2,0 5,223 6,496 l3,497 l38,13 l37,13 l0,-532 l0,-532 l112,-52 c61,-29 113,-51 115,-50 c2,2 2,353 1,780 l-3,777 l-370,-178 z" id="svg_78"/>
 <path d="M6469.99951171875,495.000244140625 l0,-355 l193,0 c105,0 324,-3 485,-7 l292,-6 l-2,214 l-3,213 l-475,148 c-261,81 -478,148 -482,148 c-5,0 -8,-160 -8,-355 zm520,-60 c140,-25 263,-48 273,-51 c10,-3 17,-15 17,-30 c0,-30 13,-31 -295,6 c-137,16 -258,30 -267,30 c-15,0 -18,9 -18,51 c0,43 2,50 18,45 c9,-3 132,-26 272,-51 z" id="svg_80"/>
 <path d="M6844.99951171875,59.000244140625 c-181,-3 -340,-7 -352,-8 l-23,-1 l0,-351 c0,-330 1,-351 18,-347 c9,3 227,70 485,149 l467,143 l0,213 l0,213 l-132,-2 c-73,-1 -281,-5 -463,-9 zm435,-216 l0,-28 l-290,-56 l-290,-55 l0,48 c0,31 4,48 13,49 c6,0 127,15 267,33 c325,43 300,42 300,9 z" id="svg_82"/>
 </g><g fill="#f57c00" stroke="none" class="" id="svg_98">
 <path d="M6489.99951171875,515.000244140625 l0,-355 l193,0 c105,0 324,-3 485,-7 l292,-6 l-2,214 l-3,213 l-475,148 c-261,81 -478,148 -482,148 c-5,0 -8,-160 -8,-355 zm520,-60 c140,-25 263,-48 273,-51 c10,-3 17,-15 17,-30 c0,-30 13,-31 -295,6 c-137,16 -258,30 -267,30 c-15,0 -18,9 -18,51 c0,43 2,50 18,45 c9,-3 132,-26 272,-51 z" id="svg_100"/>
 <path d="M6864.99951171875,79.000244140625 c-181,-3 -340,-7 -352,-8 l-23,-1 l0,-351 c0,-330 1,-351 18,-347 c9,3 227,70 485,149 l467,143 l0,213 l0,213 l-132,-2 c-73,-1 -281,-5 -463,-9 zm435,-216 l0,-28 l-290,-56 l-290,-55 l0,48 c0,31 4,48 13,49 c6,0 127,15 267,33 c325,43 300,42 300,9 z" id="svg_102"/>
 </g><g fill="#f57c00" stroke="none" class="" id="svg_84">
 <path d="M6449.99951171875,475.000244140625 l0,-355 l193,0 c105,0 324,-3 485,-7 l292,-6 l-2,214 l-3,213 l-475,148 c-261,81 -478,148 -482,148 c-5,0 -8,-160 -8,-355 zm520,-60 c140,-25 263,-48 273,-51 c10,-3 17,-15 17,-30 c0,-30 13,-31 -295,6 c-137,16 -258,30 -267,30 c-15,0 -18,9 -18,51 c0,43 2,50 18,45 c9,-3 132,-26 272,-51 z" id="svg_86"/>
 <path d="M6824.99951171875,39.000244140625 c-181,-3 -340,-7 -352,-8 l-23,-1 l0,-351 c0,-330 1,-351 18,-347 c9,3 227,70 485,149 l467,143 l0,213 l0,213 l-132,-2 c-73,-1 -281,-5 -463,-9 zm435,-216 l0,-28 l-290,-56 l-290,-55 l0,48 c0,31 4,48 13,49 c6,0 127,15 267,33 c325,43 300,42 300,9 z" id="svg_88"/>
 </g><g fill="#f57c00" stroke="none" class="" id="svg_70">
 <path d="M6409.99951171875,435.000244140625 l0,-355 l193,0 c105,0 324,-3 485,-7 l292,-6 l-2,214 l-3,213 l-475,148 c-261,81 -478,148 -482,148 c-5,0 -8,-160 -8,-355 zm520,-60 c140,-25 263,-48 273,-51 c10,-3 17,-15 17,-30 c0,-30 13,-31 -295,6 c-137,16 -258,30 -267,30 c-15,0 -18,9 -18,51 c0,43 2,50 18,45 c9,-3 132,-26 272,-51 z" id="svg_72"/>
 <path d="M6784.99951171875,-0.999755859375 c-181,-3 -340,-7 -352,-8 l-23,-1 l0,-351 c0,-330 1,-351 18,-347 c9,3 227,70 485,149 l467,143 l0,213 l0,213 l-132,-2 c-73,-1 -281,-5 -463,-9 zm435,-216 l0,-28 l-290,-56 l-290,-55 l0,48 c0,31 4,48 13,49 c6,0 127,15 267,33 c325,43 300,42 300,9 z" id="svg_74"/>
 </g><g fill="#f57c00" stroke="none" class="" id="svg_42" transform="rotate(-7.660916805267334 181.98756408691426,109.46340942382818) ">
 <path d="M123.30863244891498,157.3744605379564 l0,-42.95056990794286 l23.35059152741682,0 c12.70368969108169,0 39.19995676105207,-0.36296256260233656 58.67894762071065,-0.8469126460721128 l35.32835609329385,-0.725925125204668 l-0.2419750417348897,25.891329465633152 l-0.36296256260233656,25.77034194476571 l-57.469072412036226,17.90615308838181 c-31.577742946403053,9.799989190263018 -57.83203497463854,17.90615308838181 -58.315985058108325,17.90615308838181 c-0.6049376043372234,0 -0.9679001669395576,-19.358003338791146 -0.9679001669395576,-42.95056990794286 zm62.91351085107123,-7.2592512520466785 c16.938252921442253,-3.024688021686117 31.819717988137945,-5.807401001637345 33.02959319681239,-6.170363564239677 c1.209875208674447,-0.36296256260233656 2.0567878547465597,-1.8148128130116694 2.0567878547465597,-3.62962562602334 c0,-3.62962562602334 1.5728377712767807,-3.7506131468907844 -35.69131865589617,0.725925125204668 c-16.575290358839915,1.9358003338791154 -31.21478038380072,3.62962562602334 -32.303668071607724,3.62962562602334 c-1.8148128130116694,0 -2.1777753756140035,1.0888876878070015 -2.1777753756140035,6.170363564239677 c0,5.202463397300121 0.2419750417348897,6.049376043372234 2.1777753756140035,5.444438439035009 c1.0888876878070015,-0.36296256260233656 15.970352754502697,-3.1456755425535614 32.90860567594495,-6.170363564239677 z" id="svg_44"/>
 <path d="M168.67895277420675,104.62390143975057 c-21.898741277007485,-0.36296256260233656 -41.135757094931186,-0.8469126460721128 -42.587607345340516,-0.9679001669395576 l-2.7827129799512274,-0.12098752086744465 l0,-42.46661982447307 c0,-39.92588188625675 0.12098752086744465,-42.46661982447307 2.1777753756140035,-41.98266974100329 c1.0888876878070015,0.36296256260233656 27.46416723690994,8.469126460721126 58.67894762071065,18.02714060924926 l56.50117224509666,17.301215484044587 l0,25.77034194476571 l0,25.77034194476571 l-15.970352754502697,-0.2419750417348897 c-8.832089023323462,-0.12098752086744465 -33.99749336375195,-0.6049376043372234 -56.017222161626876,-1.0888876878070015 zm52.629571577338425,-26.133304507368045 l0,-3.3876505842884512 l-35.08638105155895,-6.775301168576902 l-35.08638105155895,-6.654313647709455 l0,5.807401001637345 c0,3.7506131468907844 0.48395008346978186,5.807401001637345 1.5728377712767807,5.928388522504788 c0.725925125204668,0 15.365415150165475,1.8148128130116694 32.303668071607724,3.9925881886256747 c39.320944281919516,5.202463397300121 36.29625626023339,5.081475876432676 36.29625626023339,1.0888876878070015 z" id="svg_46"/>
 </g><g fill="#f57c00" stroke="none" class="" id="svg_56">
 <path d="M6409.999507904053,2515 l0,-355 l193,0 c105,0 324,-3 485,-7 l292,-6 l-2,214 l-3,213 l-475,148 c-261,81 -478,148 -482,148 c-5,0 -8,-160 -8,-355 zm520,-60 c140,-25 263,-48 273,-51 c10,-3 17,-15 17,-30 c0,-30 13,-31 -295,6 c-137,16 -258,30 -267,30 c-15,0 -18,9 -18,51 c0,43 2,50 18,45 c9,-3 132,-26 272,-51 z" id="svg_58"/>
 <path d="M6784.999507904053,2079 c-181,-3 -340,-7 -352,-8 l-23,-1 l0,-351 c0,-330 1,-351 18,-347 c9,3 227,70 485,149 l467,143 l0,213 l0,213 l-132,-2 c-73,-1 -281,-5 -463,-9 zm435,-216 l0,-28 l-290,-56 l-290,-55 l0,48 c0,31 4,48 13,49 c6,0 127,15 267,33 c325,43 300,42 300,9 z" id="svg_60"/>
 </g><g fill="#f57c00" stroke="none" class="" id="svg_28">
 <path d="M6289.99951171875,315.000244140625 l0,-355 l193,0 c105,0 324,-3 485,-7 l292,-6 l-2,214 l-3,213 l-475,148 c-261,81 -478,148 -482,148 c-5,0 -8,-160 -8,-355 zm520,-60 c140,-25 263,-48 273,-51 c10,-3 17,-15 17,-30 c0,-30 13,-31 -295,6 c-137,16 -258,30 -267,30 c-15,0 -18,9 -18,51 c0,43 2,50 18,45 c9,-3 132,-26 272,-51 z" id="svg_30"/>
 <path d="M6664.99951171875,-120.999755859375 c-181,-3 -340,-7 -352,-8 l-23,-1 l0,-351 c0,-330 1,-351 18,-347 c9,3 227,70 485,149 l467,143 l0,213 l0,213 l-132,-2 c-73,-1 -281,-5 -463,-9 zm435,-216 l0,-28 l-290,-56 l-290,-55 l0,48 c0,31 4,48 13,49 c6,0 127,15 267,33 c325,43 300,42 300,9 z" id="svg_32"/>
 </g></g></svg>