<?xml version="1.0" encoding="utf-8"?>
<!-- Generator: Adobe Illustrator 16.0.3, SVG Export Plug-In . SVG Version: 6.00 Build 0)  -->
<!DOCTYPE svg PUBLIC "-//W3C//DTD SVG 1.1//EN" "http://www.w3.org/Graphics/SVG/1.1/DTD/svg11.dtd">
<svg version="1.1" id="Capa_1" xmlns="http://www.w3.org/2000/svg" xmlns:xlink="http://www.w3.org/1999/xlink" x="0px" y="0px"
	 width="900px" height="900px" viewBox="0 0 900 900" enable-background="new 0 0 900 900" xml:space="preserve">
<path fill="#3178C6" d="M134.068,246.681L653.284,81.684c11.569-3.657,23.979,2.633,27.634,14.116l163.118,513.395
	c3.63,11.461-2.817,23.813-14.431,27.498l-519.18,164.961c-11.658,3.707-24.042-2.64-27.657-14.121L119.615,274.164
	C115.998,262.678,122.438,250.349,134.068,246.681z M496.546,379.12l-14.448-45.493l-199.781,63.46l14.485,45.507l71.314-22.666
	l64.378,202.681l56.788-18.041l-64.396-202.685L496.546,379.12z M581.888,569.227c10.645,1.748,22.536,1.762,35.777,0.08
	c13.253-1.662,26.751-4.705,40.617-9.088c13.472-4.275,25.952-9.629,37.279-16.043c11.344-6.42,20.658-13.943,27.947-22.711
	c7.313-8.697,12.121-18.613,14.506-29.736c2.345-11.098,1.286-23.582-3.083-37.422c-3.192-10.012-7.481-18.354-12.977-24.973
	c-5.473-6.526-11.944-11.893-19.586-15.952c-7.623-4.031-16.192-7.14-25.71-9.216c-9.54-2.153-20.009-3.68-31.444-4.618
	c-8.316-0.662-15.902-1.464-22.659-2.406c-6.764-0.986-12.697-2.291-17.697-3.926c-5.074-1.621-9.211-3.746-12.51-6.287
	c-3.268-2.599-5.555-5.994-6.871-10.136c-1.223-3.814-1.295-7.561-0.298-11.245c1.037-3.684,3.033-7.213,5.951-10.558
	c2.952-3.354,6.837-6.464,11.756-9.362c4.943-2.889,10.592-5.359,17.037-7.399c4.709-1.507,9.762-2.733,15.23-3.688
	c5.395-0.979,11.021-1.583,16.753-1.82c5.746-0.246,11.459-0.035,17.146,0.561c5.702,0.606,11.104,1.684,16.209,3.232
	l-16.415-51.755c-9.567-0.521-19.735,0.081-30.347,1.741c-10.649,1.663-22.531,4.583-35.729,8.763
	c-13.341,4.253-25.595,9.705-36.683,16.335c-11.042,6.629-20.186,14.377-27.396,23.283c-7.19,8.882-11.929,18.813-14.271,29.787
	c-2.32,10.941-1.422,22.896,2.709,35.83c5.242,16.486,14.538,29.039,27.896,37.586c13.422,8.623,31.225,13.786,53.527,15.569
	c8.714,0.66,16.94,1.457,24.561,2.361c7.682,0.859,14.438,2.111,20.304,3.813c5.893,1.686,10.857,3.936,14.914,6.895
	c4.021,2.887,6.791,6.793,8.37,11.666c1.101,3.525,1.272,7.145,0.482,10.736c-0.766,3.65-2.607,7.168-5.469,10.516
	c-2.854,3.424-6.77,6.592-11.697,9.543c-4.973,2.939-11.021,5.615-18.156,7.895c-12.209,3.877-24.972,5.553-38.27,5.145
	c-13.362-0.373-26.419-3.189-39.34-8.34L581.888,569.227z"/>
</svg>
